<?xml version="1.0" standalone="no"?>
<!DOCTYPE svg PUBLIC "-//W3C//DTD SVG 20010904//EN"
 "http://www.w3.org/TR/2001/REC-SVG-20010904/DTD/svg10.dtd">
<svg version="1.0" xmlns="http://www.w3.org/2000/svg"
 width="192.000000pt" height="192.000000pt" viewBox="0 0 192.000000 192.000000"
 preserveAspectRatio="xMidYMid meet">

<g transform="translate(0.000000,192.000000) scale(0.100000,-0.100000)"
fill="#71a597" stroke="none">
<path d="M0 960 l0 -960 960 0 960 0 0 960 0 960 -960 0 -960 0 0 -960z m971
834 c63 -18 109 -44 161 -90 34 -30 39 -32 95 -27 173 16 348 -88 425 -252 34
-75 49 -201 30 -268 -10 -36 -8 -42 27 -97 154 -237 44 -555 -222 -646 -41
-14 -49 -22 -70 -67 -50 -109 -161 -200 -282 -232 -139 -36 -274 -4 -391 91
-40 33 -48 36 -88 31 -59 -8 -160 9 -224 38 -29 13 -80 50 -113 81 -105 101
-153 238 -130 375 l11 68 -34 53 c-111 175 -94 380 45 533 47 51 168 125 205
125 8 0 28 27 44 61 77 151 215 238 381 239 41 0 100 -7 130 -16z"/>
<path d="M734 1679 c-67 -26 -132 -83 -169 -150 l-30 -54 0 -250 0 -249 65
-38 65 -38 5 247 c3 137 8 253 13 260 4 6 88 58 187 115 l181 103 -28 23 c-64
52 -198 66 -289 31z"/>
<path d="M1180 1557 c-39 -11 -273 -138 -392 -214 l-38 -23 0 -80 c0 -44 3
-80 6 -80 3 0 99 54 213 120 115 66 217 120 227 120 11 0 98 -45 193 -100 95
-55 178 -100 184 -100 17 0 2 121 -22 176 -27 62 -100 136 -163 164 -59 26
-150 33 -208 17z"/>
<path d="M369 1369 c-51 -26 -124 -111 -143 -166 -9 -26 -16 -78 -16 -117 0
-58 5 -82 29 -131 16 -33 44 -74 62 -92 19 -17 119 -81 222 -141 l189 -109 69
40 c38 22 69 42 69 46 -1 3 -91 58 -202 121 -110 63 -208 120 -217 127 -14 10
-17 44 -21 226 l-5 215 -36 -19z"/>
<path d="M1087 1258 c-60 -36 -66 -42 -50 -53 10 -7 99 -58 198 -115 99 -57
190 -112 203 -123 21 -20 22 -25 22 -229 0 -160 3 -208 13 -208 42 2 132 88
166 160 38 81 37 192 -2 272 -16 32 -48 74 -72 95 -35 31 -392 244 -406 243
-2 -1 -35 -19 -72 -42z"/>
<path d="M845 1117 l-90 -53 -3 -106 -3 -107 73 -42 c119 -69 112 -69 209 -12
l84 50 3 109 3 110 -88 50 c-48 27 -90 50 -93 52 -3 1 -46 -22 -95 -51z"/>
<path d="M1200 761 c0 -213 -2 -250 -16 -262 -8 -7 -90 -56 -181 -108 -91 -53
-166 -100 -166 -106 0 -5 26 -23 59 -40 50 -25 69 -30 134 -29 127 1 231 67
287 183 l28 56 0 240 0 239 -65 38 c-36 21 -68 38 -72 38 -5 0 -8 -112 -8
-249z"/>
<path d="M898 630 c-114 -66 -213 -120 -220 -120 -7 0 -94 47 -193 105 -169
98 -180 103 -188 83 -10 -27 7 -116 32 -172 25 -57 85 -116 147 -146 58 -29
164 -38 227 -21 23 7 125 61 227 120 l185 107 3 82 c2 45 -1 82 -5 82 -4 0
-101 -54 -215 -120z"/>
</g>
</svg>
